<svg width="24" height="24" viewBox="0 0 24 24" fill="none" xmlns="http://www.w3.org/2000/svg">
<path d="M13.8321 1.55057L22.2372 7.11211C22.418 7.23181 22.5663 7.39398 22.6689 7.58422C22.7715 7.77446 22.8251 7.98689 22.8251 8.20265C22.8251 8.41842 22.7715 8.63085 22.6689 8.82109C22.5663 9.01133 22.418 9.1735 22.2372 9.2932L13.8321 14.856C13.2897 15.215 12.6524 15.4066 12.0005 15.4066C11.3487 15.4066 10.7114 15.215 10.169 14.856L1.7639 9.2932C1.58304 9.1735 1.43476 9.01133 1.3322 8.82109C1.22964 8.63085 1.17597 8.41842 1.17597 8.20265C1.17597 7.98689 1.22964 7.77446 1.3322 7.58422C1.43476 7.39398 1.58304 7.23181 1.7639 7.11211L10.169 1.55057C10.7114 1.19157 11.3487 1 12.0005 1C12.6524 1 13.2897 1.19157 13.8321 1.55057ZM22.599 13.042C22.4031 13.3533 22.1435 13.6203 21.8371 13.8258L13.8479 19.1789C13.3023 19.5446 12.6589 19.74 12.0005 19.74C11.3421 19.74 10.6988 19.5446 10.1531 19.1789L2.16402 13.8258C1.68587 13.5056 1.32646 13.0389 1.14071 12.4968C0.954955 11.9548 0.953067 11.3673 1.13533 10.8242L10.169 16.8012C10.6761 17.1367 11.267 17.3262 11.876 17.3489C12.485 17.3716 13.0885 17.2265 13.6195 16.9297L13.8308 16.8012L22.8644 10.8242C22.9874 11.1904 23.0274 11.5791 22.9816 11.9625C22.9357 12.3459 22.805 12.7145 22.599 13.042ZM22.599 17.3019C22.4031 17.6133 22.1435 17.8803 21.8371 18.0858L13.8479 23.4389C13.3023 23.8046 12.6589 24 12.0005 24C11.3421 24 10.6988 23.8046 10.1531 23.4389L2.16402 18.0858C1.68587 17.7656 1.32646 17.2988 1.14071 16.7568C0.954955 16.2148 0.953067 15.6273 1.13533 15.0841L10.169 21.0612C10.6761 21.3966 11.267 21.5862 11.876 21.6089C12.485 21.6315 13.0885 21.4864 13.6195 21.1896L13.8308 21.0612L22.8644 15.0841C22.9874 15.4504 23.0274 15.8391 22.9816 16.2225C22.9357 16.6059 22.805 16.9745 22.599 17.3019Z" fill="white"/>
</svg>
