<svg width="24" height="24" viewBox="0 0 24 24" fill="none" xmlns="http://www.w3.org/2000/svg">
<path d="M0.0403002 10.5719C-0.200501 13.4159 0.642302 15.786 2.44831 17.919C4.25432 20.052 6.66233 21 9.55194 21H21.592C22.194 21 22.796 20.763 23.2776 20.289C23.7592 19.815 24 19.2225 24 18.63V17.682C24 16.971 23.8796 16.1415 23.7592 15.0749H13.8864C12.6824 15.0749 11.7191 14.6009 10.8763 13.7714C10.0335 12.9419 9.55194 11.8754 9.55194 10.8089C9.55194 8.91289 10.3947 7.60938 12.2008 6.89838L17.98 4.40985C15.9332 2.98784 13.5252 2.15833 10.7559 2.03983C8.10713 1.80283 5.69912 2.63234 3.53191 4.29135C1.36471 5.95037 0.281101 7.96488 0.0403002 10.5719ZM11.9599 10.8089C11.9599 11.2829 12.2008 11.7569 12.562 12.1124C12.9232 12.4679 13.4048 12.7049 13.8864 12.7049H23.2776C22.5552 10.0979 21.4716 7.96488 19.9064 6.30587L13.164 9.03139C12.3212 9.2684 11.9599 9.8609 11.9599 10.8089Z" fill="white"/>
</svg>
