<svg width="24" height="24" viewBox="0 0 24 24" fill="none" xmlns="http://www.w3.org/2000/svg">
<path d="M10.1392 15.6562C10.6192 16.1313 11.2391 16.364 11.9991 16.3545C12.759 16.345 13.319 16.0727 13.6789 15.5375L20.3984 5.5625L10.3192 12.2125C9.77924 12.5688 9.49447 13.113 9.46487 13.8453C9.43527 14.5776 9.66005 15.1812 10.1392 15.6562ZM11.9991 2C13.179 2 14.3141 2.16308 15.4044 2.48925C16.4947 2.81542 17.5194 3.30546 18.4786 3.95938L16.1987 5.38437C15.5388 5.04792 14.8541 4.79577 14.1445 4.62794C13.435 4.4601 12.7198 4.37579 11.9991 4.375C9.33928 4.375 7.07425 5.30046 5.204 7.15138C3.33374 9.00229 2.39901 11.2435 2.39981 13.875C2.39981 14.7062 2.51501 15.5276 2.74539 16.3391C2.97577 17.1505 3.30054 17.9125 3.71971 18.625H20.2784C20.7384 17.8729 21.0736 17.0911 21.284 16.2797C21.4943 15.4682 21.5991 14.6271 21.5983 13.7562C21.5983 13.0437 21.5131 12.351 21.3428 11.6781C21.1724 11.0052 20.9176 10.3521 20.5784 9.71875L22.0183 7.4625C22.6183 8.39271 23.0934 9.38229 23.4438 10.4313C23.7942 11.4802 23.9789 12.5688 23.9981 13.6969C24.0173 14.825 23.8874 15.9036 23.6082 16.9328C23.329 17.962 22.919 18.9417 22.3783 19.8719C22.1583 20.2281 21.8583 20.5052 21.4783 20.7031C21.0984 20.901 20.6984 21 20.2784 21H3.71971C3.29974 21 2.89978 20.901 2.51981 20.7031C2.13983 20.5052 1.83986 20.2281 1.61987 19.8719C1.09991 18.9812 0.699946 18.0364 0.419967 17.0373C0.139989 16.0382 0 14.9841 0 13.875C0 12.2323 0.315176 10.6937 0.945527 9.25919C1.57588 7.82469 2.43581 6.56792 3.52533 5.48888C4.61484 4.40983 5.88954 3.55879 7.34943 2.93575C8.80932 2.31271 10.3592 2.00079 11.9991 2Z" fill="white"/>
</svg>
